<mxfile host="65bd71144e" modified="2020-12-31T23:25:52.798Z" agent="5.0 (Macintosh; Intel Mac OS X 11_1_0) AppleWebKit/537.36 (KHTML, like Gecko) Chrome/87.0.4280.88 Safari/537.36 Edg/87.0.664.66" version="13.10.0" etag="W52g_br9tOYDHPnhPew-" type="embed">
    <diagram id="V1FzI5N1bynavL4zuMYr" name="Page-1">
        <mxGraphModel dx="838" dy="797" grid="1" gridSize="10" guides="1" tooltips="1" connect="1" arrows="1" fold="1" page="1" pageScale="1" pageWidth="850" pageHeight="1100" math="0" shadow="0">
            <root>
                <mxCell id="0"/>
                <mxCell id="1" parent="0"/>
            </root>
        </mxGraphModel>
    </diagram>
</mxfile>